<svg width="1200" height="630" viewBox="0 0 1200 630" fill="none" xmlns="http://www.w3.org/2000/svg">
  <!-- Arka plan -->
  <rect width="1200" height="630" rx="12" fill="#fef2f2"/>
  
  <!-- Uygulama Arayüzü -->
  <rect x="100" y="50" width="1000" height="530" rx="8" fill="white" stroke="#dc2626" stroke-width="2"/>
  
  <!-- Üst Bar -->
  <rect x="100" y="50" width="1000" height="60" rx="8" fill="#dc2626"/>
  <circle cx="140" cy="80" r="15" fill="white"/>
  <rect x="170" y="70" width="100" height="20" rx="4" fill="white"/>
  
  <!-- Sol Menü -->
  <rect x="100" y="110" width="200" height="470" fill="#fef2f2"/>
  <rect x="120" y="130" width="160" height="30" rx="4" fill="#ef4444"/>
  <rect x="120" y="170" width="160" height="30" rx="4" fill="#b91c1c"/>
  <rect x="120" y="210" width="160" height="30" rx="4" fill="#b91c1c"/>
  
  <!-- Ana İçerik -->
  <rect x="320" y="130" width="760" height="100" rx="8" fill="#fee2e2"/>
  <rect x="340" y="150" width="720" height="60" rx="4" fill="white"/>
  
  <!-- Deneyim Kartları -->
  <rect x="320" y="250" width="360" height="150" rx="8" fill="white" stroke="#fecaca" stroke-width="2"/>
  <rect x="720" y="250" width="360" height="150" rx="8" fill="white" stroke="#fecaca" stroke-width="2"/>
  <rect x="320" y="420" width="360" height="150" rx="8" fill="white" stroke="#fecaca" stroke-width="2"/>
  <rect x="720" y="420" width="360" height="150" rx="8" fill="white" stroke="#fecaca" stroke-width="2"/>
  
  <!-- Kart İçerikleri -->
  <rect x="340" y="270" width="320" height="20" rx="4" fill="#ef4444"/>
  <rect x="340" y="300" width="320" height="80" rx="4" fill="#fef2f2"/>
  
  <rect x="740" y="270" width="320" height="20" rx="4" fill="#ef4444"/>
  <rect x="740" y="300" width="320" height="80" rx="4" fill="#fef2f2"/>
  
  <rect x="340" y="440" width="320" height="20" rx="4" fill="#ef4444"/>
  <rect x="340" y="470" width="320" height="80" rx="4" fill="#fef2f2"/>
  
  <rect x="740" y="440" width="320" height="20" rx="4" fill="#ef4444"/>
  <rect x="740" y="470" width="320" height="80" rx="4" fill="#fef2f2"/>
</svg> 